<svg xmlns="http://www.w3.org/2000/svg" viewBox="0 0 24 24" fill="currentColor">
  <path d="M4.5 7.5C4.5 5.01472 6.51472 3 9 3C11.4853 3 13.5 5.01472 13.5 7.5C13.5 9.98528 11.4853 12 9 12C6.51472 12 4.5 9.98528 4.5 7.5Z"/>
  <path d="M9 13.5C6.51472 13.5 4.5 15.5147 4.5 18C4.5 20.4853 6.51472 22.5 9 22.5C11.4853 22.5 13.5 20.4853 13.5 18C13.5 15.5147 11.4853 13.5 9 13.5Z"/>
  <path d="M19.5 7.5C19.5 5.01472 17.4853 3 15 3C12.5147 3 10.5 5.01472 10.5 7.5C10.5 9.98528 12.5147 12 15 12C17.4853 12 19.5 9.98528 19.5 7.5Z"/>
</svg>
